# File created by Blade
# Date/Time:  Thu Sep 25 18:39:44 2014
# Frame Rate: 120.000 fps
#------------------------------------------------------
:FULLY-SPECIFIED
:DEGREES
408
root -0.873343 33.148875 -1.995129 8.335614 8.057923 -0.376088
Spine -12.840844 6.050606 0.149600
Head 12.415304 -10.954651 7.783148
LeftShoulder -10.971031 -8.161859 48.734729
LeftArm 95.050695 -68.798391 -73.547197
LeftForeArm -36.851890 -0.000000 104.713365
LeftHand -21.080327 -0.000000 -4.679568
LeftHandThumb1 -26.253704 0.000000 33.147579
RightShoulder -120.536234 42.259400 -200.003303
RightArm -20.725108 11.366594 50.991608
RightForeArm 41.872103 -0.000000 159.595971
RightHand 7.833544 -0.000000 27.583016
RightHandThumb1 -24.326973 -0.000000 -32.862282
LeftUpLeg -1.092736 3.927847 1.915560
LeftLeg -2.038900 -0.000000 0.000000
LeftFoot -7.227086 -0.514754 -11.252677
LeftToeBase 9.938666 -0.000000 -0.000000
RightUpLeg -0.849482 -9.595177 0.308072
RightLeg 0.118838 -0.000000 -0.000000
RightFoot -7.163647 -3.309618 1.325450
RightToeBase -0.759304 -0.000000 0.000000
409
root -0.870743 33.150160 -1.993280 8.359156 8.070747 -0.365761
Spine -12.862319 6.041054 0.103543
Head 12.028332 -11.025801 8.030791
LeftShoulder -10.861695 -7.199486 48.378407
LeftArm 97.484325 -69.276556 -75.705826
LeftForeArm -36.871595 -0.000000 104.795176
LeftHand -21.137882 -0.000000 -4.521393
LeftHandThumb1 -26.253704 0.000000 33.147579
RightShoulder -120.695562 42.019637 -200.174929
RightArm -20.697774 11.136200 51.266162
RightForeArm 41.852157 -0.000000 159.591866
RightHand 7.787501 -0.000000 27.711135
RightHandThumb1 -24.326973 -0.000000 -32.862282
LeftUpLeg -1.110268 3.907971 1.907146
LeftLeg -2.048688 -0.000000 0.000000
LeftFoot -7.190960 -0.542488 -11.217599
LeftToeBase 9.898779 -0.000000 -0.000000
RightUpLeg -0.840307 -9.533131 0.295839
RightLeg 0.066646 -0.000000 -0.000000
RightFoot -7.134920 -3.386052 1.356346
RightToeBase -0.751630 -0.000000 0.000000
410
root -0.873289 33.148442 -1.994288 8.395012 8.094112 -0.382851
Spine -12.894681 6.090168 0.116740
Head 11.620997 -11.111598 8.107475
LeftShoulder -10.879713 -8.087402 48.672603
LeftArm 94.606148 -69.103014 -73.483551
LeftForeArm -36.911257 -0.000000 105.171883
LeftHand -21.246032 0.000000 -4.373089
LeftHandThumb1 -26.253704 0.000000 33.147579
RightShoulder -120.746671 41.820682 -200.393518
RightArm -20.746764 10.957559 51.456011
RightForeArm 41.791693 -0.000000 159.586616
RightHand 7.721511 0.000000 27.846364
RightHandThumb1 -24.326973 -0.000000 -32.862282
LeftUpLeg -1.158900 3.876659 1.923067
LeftLeg -2.023389 -0.000000 0.000000
LeftFoot -7.205134 -0.517504 -11.127455
LeftToeBase 9.734468 -0.000000 -0.000000
RightUpLeg -0.908465 -9.610629 0.327813
RightLeg 0.126535 -0.000000 -0.000000
RightFoot -7.165127 -3.330486 1.340716
RightToeBase -0.800636 -0.000000 0.000000
411
root -0.871328 33.147394 -1.992697 8.432360 8.112631 -0.374907
Spine -12.934230 6.110985 0.090325
Head 11.237958 -11.189693 8.230741
LeftShoulder -10.839143 -8.237612 48.706648
LeftArm 93.894405 -69.200265 -73.032832
LeftForeArm -36.968454 -0.000000 105.403776
LeftHand -21.314396 -0.000000 -4.186899
LeftHandThumb1 -26.253704 0.000000 33.147579
RightShoulder -120.792604 41.651937 -200.519899
RightArm -20.706481 10.853882 51.607065
RightForeArm 41.712820 0.000000 159.557934
RightHand 7.724685 -0.000000 27.965957
RightHandThumb1 -24.326973 -0.000000 -32.862282
LeftUpLeg -1.192278 3.859484 1.911866
LeftLeg -2.026478 -0.000000 0.000000
LeftFoot -7.203473 -0.516083 -11.114882
LeftToeBase 9.701340 -0.000000 -0.000000
RightUpLeg -0.912170 -9.547268 0.322480
RightLeg 0.070518 -0.000000 -0.000000
RightFoot -7.165280 -3.376716 1.381572
RightToeBase -0.758753 -0.000000 0.000000
412
root -0.866642 33.147151 -1.987902 8.455331 8.118479 -0.378309
Spine -12.965375 6.161597 0.093995
Head 10.913068 -11.263784 8.247863
LeftShoulder -10.794629 -8.196015 48.609110
LeftArm 93.924553 -69.307947 -73.178765
LeftForeArm -37.056828 -0.000000 105.579937
LeftHand -21.433165 -0.000000 -4.008738
LeftHandThumb1 -26.253704 0.000000 33.147579
RightShoulder -120.800962 41.507945 -200.607460
RightArm -20.679740 10.545331 51.675074
RightForeArm 41.415469 0.000000 159.520315
RightHand 7.946270 0.000000 27.843385
RightHandThumb1 -24.326973 -0.000000 -32.862282
LeftUpLeg -1.196807 3.865415 1.905707
LeftLeg -2.053792 -0.000000 0.000000
LeftFoot -7.240113 -0.491774 -11.219251
LeftToeBase 9.860238 -0.000000 -0.000000
RightUpLeg -0.921543 -9.562735 0.321352
RightLeg 0.060300 -0.000000 -0.000000
RightFoot -7.153967 -3.353660 1.393921
RightToeBase -0.780344 -0.000000 0.000000
413
root -0.865486 33.146648 -1.985042 8.476798 8.139696 -0.383706
Spine -12.992272 6.180981 0.079107
Head 10.638617 -11.337039 8.289957
LeftShoulder -10.748981 -7.951880 48.471012
LeftArm 94.663246 -69.457627 -73.917615
LeftForeArm -37.109621 -0.000000 105.704798
LeftHand -21.531926 -0.000000 -3.759623
LeftHandThumb1 -26.253704 0.000000 33.147579
RightShoulder -120.777091 41.393947 -200.643333
RightArm -20.646719 10.509758 51.694498
RightForeArm 41.226075 0.000000 159.505987
RightHand 8.011758 -0.000000 27.913180
RightHandThumb1 -24.326973 -0.000000 -32.862282
LeftUpLeg -1.212137 3.857037 1.909232
LeftLeg -2.058740 -0.000000 0.000000
LeftFoot -7.208458 -0.510499 -11.086097
LeftToeBase 9.701117 -0.000000 -0.000000
RightUpLeg -0.929451 -9.565021 0.328926
RightLeg 0.047617 -0.000000 -0.000000
RightFoot -7.153047 -3.380569 1.392276
RightToeBase -0.795458 -0.000000 0.000000
414
root -0.866089 33.147453 -1.982497 8.501224 8.160516 -0.402304
Spine -13.018451 6.196295 0.073917
Head 10.406403 -11.423091 8.301588
LeftShoulder -10.742834 -8.068617 48.491028
LeftArm 94.460031 -69.484671 -73.896664
LeftForeArm -37.191188 -0.000000 105.892305
LeftHand -21.758927 -0.000000 -3.504556
LeftHandThumb1 -26.253704 0.000000 33.147579
RightShoulder -120.789301 41.214203 -200.785380
RightArm -20.723332 10.474601 51.684290
RightForeArm 41.061367 -0.000000 159.512795
RightHand 8.091313 0.000000 27.971124
RightHandThumb1 -24.326973 -0.000000 -32.862282
LeftUpLeg -1.235623 3.882290 1.930770
LeftLeg -2.067897 -0.000000 0.000000
LeftFoot -7.234583 -0.544937 -11.229445
LeftToeBase 9.862835 -0.000000 -0.000000
RightUpLeg -0.977274 -9.657279 0.358209
RightLeg 0.099306 -0.000000 -0.000000
RightFoot -7.164071 -3.323634 1.352646
RightToeBase -0.763833 -0.000000 0.000000
415
root -0.866586 33.147144 -1.979366 8.520483 8.180919 -0.414337
Spine -13.041301 6.200842 0.059570
Head 10.189972 -11.485654 8.297979
LeftShoulder -10.722214 -8.064269 48.485180
LeftArm 94.605139 -69.576326 -74.159513
LeftForeArm -37.215495 -0.000000 106.030088
LeftHand -21.761977 -0.000000 -3.279173
LeftHandThumb1 -26.253704 0.000000 33.147579
RightShoulder -120.803677 41.040518 -200.911135
RightArm -20.797314 10.380761 51.685926
RightForeArm 40.981082 -0.000000 159.522159
RightHand 8.157139 -0.000000 27.984012
RightHandThumb1 -24.326973 -0.000000 -32.862282
LeftUpLeg -1.242991 3.873192 1.944788
LeftLeg -2.089478 -0.000000 0.000000
LeftFoot -7.235020 -0.541391 -11.239120
LeftToeBase 9.904087 -0.000000 -0.000000
RightUpLeg -0.989219 -9.677074 0.375712
RightLeg 0.096588 -0.000000 -0.000000
RightFoot -7.166253 -3.305167 1.375149
RightToeBase -0.754935 -0.000000 0.000000
416
root -0.866732 33.148799 -1.976556 8.527456 8.187863 -0.434606
Spine -13.046257 6.189012 0.041633
Head 9.985989 -11.535706 8.351981
LeftShoulder -10.683525 -7.331995 48.199775
LeftArm 97.120391 -69.866635 -76.394158
LeftForeArm -37.142248 -0.000000 106.036273
LeftHand -21.875462 -0.000000 -3.102038
LeftHandThumb1 -26.253704 0.000000 33.147579
RightShoulder -120.793915 40.871048 -200.958663
RightArm -20.819803 10.282317 51.711775
RightForeArm 40.952550 -0.000000 159.555779
RightHand 8.175645 -0.000000 27.939639
RightHandThumb1 -24.326973 -0.000000 -32.862282
LeftUpLeg -1.242246 3.885314 1.961154
LeftLeg -2.099156 -0.000000 0.000000
LeftFoot -7.182474 -0.555278 -11.077483
LeftToeBase 9.672649 -0.000000 -0.000000
RightUpLeg -0.990433 -9.664440 0.397938
RightLeg 0.087906 -0.000000 -0.000000
RightFoot -7.134802 -3.320821 1.386315
RightToeBase -0.794339 -0.000000 0.000000
417
root -0.866322 33.148692 -1.973393 8.547067 8.216127 -0.442058
Spine -13.068632 6.180322 0.020313
Head 9.801392 -11.560290 8.380595
LeftShoulder -10.651588 -7.146589 48.121260
LeftArm 97.999783 -70.013349 -77.267285
LeftForeArm -37.098533 -0.000000 106.129030
LeftHand -21.942068 -0.000000 -2.961009
LeftHandThumb1 -26.253704 0.000000 33.147579
RightShoulder -120.712341 40.730531 -201.000765
RightArm -20.877657 10.127748 51.687817
RightForeArm 40.912013 -0.000000 159.586712
RightHand 8.212469 -0.000000 27.934944
RightHandThumb1 -24.326973 -0.000000 -32.862282
LeftUpLeg -1.247844 3.877768 1.972451
LeftLeg -2.130423 -0.000000 0.000000
LeftFoot -7.212129 -0.564012 -11.217990
LeftToeBase 9.930111 -0.000000 -0.000000
RightUpLeg -0.997704 -9.677154 0.411899
RightLeg 0.075202 -0.000000 -0.000000
RightFoot -7.121136 -3.340941 1.388108
RightToeBase -0.813301 -0.000000 0.000000
418
root -0.866083 33.148401 -1.971417 8.582721 8.239470 -0.453578
Spine -13.108742 6.157258 0.007973
Head 9.632557 -11.530934 8.426875
LeftShoulder -10.655827 -7.275091 48.202493
LeftArm 97.862804 -70.086231 -77.341467
LeftForeArm -37.039635 0.000000 106.293558
LeftHand -22.087422 -0.000000 -2.859865
LeftHandThumb1 -26.253704 0.000000 33.147579
RightShoulder -120.603583 40.607574 -201.114298
RightArm -21.087201 10.108068 51.676640
RightForeArm 41.002137 -0.000000 159.656658
RightHand 8.211503 -0.000000 28.053199
RightHandThumb1 -24.326973 -0.000000 -32.862282
LeftUpLeg -1.278867 3.872758 1.984190
LeftLeg -2.140399 -0.000000 0.000000
LeftFoot -7.215367 -0.576805 -11.211483
LeftToeBase 9.916329 -0.000000 -0.000000
RightUpLeg -1.029154 -9.689909 0.431084
RightLeg 0.072671 -0.000000 -0.000000
RightFoot -7.120042 -3.339049 1.414773
RightToeBase -0.801924 -0.000000 0.000000
